<svg width="79" height="36" viewBox="0 0 79 36" fill="none" xmlns="http://www.w3.org/2000/svg">
<g opacity="0.5">
<rect width="79" height="36" rx="18" fill="#1D9BF0"/>
<path d="M22.0571 23V14.3208H25.2285V12.4312H16.6738V14.3208H19.8452V23H22.0571ZM37.6797 14.9214H35.563L34.3618 20.7148H34.23L32.8091 14.9214H30.7729L29.3594 20.7148H29.2275L28.0264 14.9214H25.8657L28.019 23H30.2603L31.6885 17.4263H31.8203L33.2632 23H35.5337L37.6797 14.9214ZM42.3599 16.3789C43.356 16.3789 44.0005 17.0454 44.0444 18.1147H40.6021C40.6753 17.0674 41.3711 16.3789 42.3599 16.3789ZM44.0884 20.7002C43.8613 21.2349 43.2827 21.5352 42.4404 21.5352C41.3271 21.5352 40.624 20.7881 40.5947 19.5869V19.4771H46.1392V18.8252C46.1392 16.2617 44.7329 14.7456 42.3525 14.7456C39.9502 14.7456 38.4707 16.3716 38.4707 19.001C38.4707 21.623 39.9209 23.1758 42.3818 23.1758C44.3594 23.1758 45.751 22.2236 46.0732 20.7002H44.0884ZM51.3833 16.3789C52.3794 16.3789 53.0239 17.0454 53.0679 18.1147H49.6255C49.6987 17.0674 50.3945 16.3789 51.3833 16.3789ZM53.1118 20.7002C52.8848 21.2349 52.3062 21.5352 51.4639 21.5352C50.3506 21.5352 49.6475 20.7881 49.6182 19.5869V19.4771H55.1626V18.8252C55.1626 16.2617 53.7563 14.7456 51.376 14.7456C48.9736 14.7456 47.4941 16.3716 47.4941 19.001C47.4941 21.623 48.9443 23.1758 51.4053 23.1758C53.3828 23.1758 54.7744 22.2236 55.0967 20.7002H53.1118ZM57.521 13.0024V15.002H56.2612V16.6792H57.521V20.8174C57.521 22.3921 58.2974 23.0293 60.2603 23.0293C60.6704 23.0293 61.0659 22.9854 61.3296 22.9341V21.3081C61.1245 21.3301 60.978 21.3374 60.6997 21.3374C59.9746 21.3374 59.6523 21.0151 59.6523 20.312V16.6792H61.3296V15.002H59.6523V13.0024H57.521Z" fill="white"/>
</g>
</svg>
