<svg width="109" height="52" viewBox="0 0 109 52" fill="none" xmlns="http://www.w3.org/2000/svg">
<rect width="109" height="52" rx="26" fill="#1D9BF0"/>
<path d="M34.8647 32V22.1636H38.459V20.022H28.7637V22.1636H32.3579V32H34.8647ZM52.5703 22.8442H50.1714L48.8101 29.4102H48.6606L47.0503 22.8442H44.7427L43.1406 29.4102H42.9912L41.6299 22.8442H39.1812L41.6216 32H44.1616L45.7803 25.6831H45.9297L47.5649 32H50.1382L52.5703 22.8442ZM57.8745 24.4961C59.0034 24.4961 59.7339 25.2515 59.7837 26.4634H55.8823C55.9653 25.2764 56.7539 24.4961 57.8745 24.4961ZM59.8335 29.3936C59.5762 29.9995 58.9204 30.3398 57.9658 30.3398C56.7041 30.3398 55.9072 29.4932 55.874 28.1318V28.0073H62.1577V27.2686C62.1577 24.3633 60.564 22.645 57.8662 22.645C55.1436 22.645 53.4668 24.4878 53.4668 27.4678C53.4668 30.4395 55.1104 32.1992 57.8994 32.1992C60.1406 32.1992 61.7178 31.1201 62.083 29.3936H59.8335ZM68.1011 24.4961C69.23 24.4961 69.9604 25.2515 70.0103 26.4634H66.1089C66.1919 25.2764 66.9805 24.4961 68.1011 24.4961ZM70.0601 29.3936C69.8027 29.9995 69.147 30.3398 68.1924 30.3398C66.9307 30.3398 66.1338 29.4932 66.1006 28.1318V28.0073H72.3843V27.2686C72.3843 24.3633 70.7905 22.645 68.0928 22.645C65.3701 22.645 63.6934 24.4878 63.6934 27.4678C63.6934 30.4395 65.3369 32.1992 68.126 32.1992C70.3672 32.1992 71.9443 31.1201 72.3096 29.3936H70.0601ZM75.0571 20.6694V22.9355H73.6294V24.8364H75.0571V29.5264C75.0571 31.311 75.937 32.0332 78.1616 32.0332C78.6265 32.0332 79.0747 31.9834 79.3735 31.9253V30.0825C79.1411 30.1074 78.9751 30.1157 78.6597 30.1157C77.8379 30.1157 77.4727 29.7505 77.4727 28.9536V24.8364H79.3735V22.9355H77.4727V20.6694H75.0571Z" fill="white"/>
</svg>
